<?xml version="1.0" encoding="UTF-8"?>
<svg version="1.1" xmlns="http://www.w3.org/2000/svg" width="224" height="184">
<path d="M0 0 C0.79862251 0.00291284 1.59724501 0.00582568 2.4200682 0.00882679 C3.68316752 0.00754515 3.68316752 0.00754515 4.971784 0.00623763 C7.81552334 0.00458024 10.65920471 0.0101084 13.50293869 0.01555592 C15.53261702 0.01583776 17.56229545 0.01568012 19.59197372 0.01511341 C25.12067266 0.01482532 30.6493501 0.02072391 36.17804402 0.02768737 C41.94897441 0.03391899 47.71990523 0.03452455 53.49083847 0.03571278 C64.42726064 0.03882666 75.36367288 0.04704082 86.30009067 0.05706227 C98.74727595 0.06822164 111.1944617 0.07373341 123.64165074 0.0787577 C149.25419169 0.08922339 174.86672382 0.10682393 200.47925705 0.12908131 C201.85178436 2.87413594 201.6115496 5.13235543 201.60425705 8.19158131 C201.60683517 9.27568287 201.6094133 10.35978443 201.61206955 11.47673756 C201.47925705 14.12908131 201.47925705 14.12908131 200.47925705 15.12908131 C197.82379131 15.22690381 195.19434789 15.25902278 192.53844589 15.24933583 C191.27534657 15.25061746 191.27534657 15.25061746 189.9867301 15.25192499 C187.14299075 15.25358238 184.29930939 15.24805421 181.45557541 15.2426067 C179.42589708 15.24232486 177.39621864 15.2424825 175.36654037 15.2430492 C169.83784144 15.2433373 164.30916399 15.2374387 158.78047007 15.23047525 C153.00953969 15.22424363 147.23860886 15.22363806 141.46767563 15.22244984 C130.53125345 15.21933595 119.59484121 15.2111218 108.65842342 15.20110035 C96.21123814 15.18994098 83.76405239 15.18442921 71.31686336 15.17940491 C45.7043224 15.16893923 20.09179028 15.15133869 -5.52074295 15.12908131 C-6.55950678 12.01278982 -6.6543592 9.76963841 -6.64574295 6.50408131 C-6.64832108 5.52181568 -6.6508992 4.53955006 -6.65355545 3.52751881 C-6.40218927 -1.01185879 -3.96064773 0.01095909 0 0 Z " fill="#232323" transform="translate(16.52074295282364,158.8709186911583)"/>
<path d="M0 0 C5.76647195 3.08785272 8.6825837 6.68349505 10.81640625 12.97265625 C11.99103293 17.244026 11.81640625 20.27640846 11.81640625 24.97265625 C6.53640625 24.97265625 1.25640625 24.97265625 -4.18359375 24.97265625 C-4.63932292 22.43359375 -5.09505208 19.89453125 -5.55078125 17.35546875 C-6.01404078 14.80759637 -6.01404078 14.80759637 -8.18359375 12.97265625 C-11.78038441 13.29592178 -11.78038441 13.29592178 -15.18359375 13.97265625 C-17.39833451 19.01734354 -17.03431528 21.83176312 -15.18359375 26.97265625 C-14.52359375 26.97265625 -13.86359375 26.97265625 -13.18359375 26.97265625 C-13.18359375 27.63265625 -13.18359375 28.29265625 -13.18359375 28.97265625 C-12.65507813 29.21757813 -12.1265625 29.4625 -11.58203125 29.71484375 C-1.94989899 34.76622256 6.49844958 40.88429427 11.19140625 50.91015625 C12.80545037 58.81897243 12.00727903 64.98786828 7.81640625 71.97265625 C3.32108486 77.25465888 -0.35617865 79.19974133 -7.18359375 79.97265625 C-14.91364898 80.58522666 -21.69519592 79.60833461 -27.99609375 74.84765625 C-33.32537044 67.84346402 -34.84012086 61.70811419 -34.18359375 52.97265625 C-31.70435574 52.9458053 -29.22540535 52.92589078 -26.74609375 52.91015625 C-26.03904297 52.90177734 -25.33199219 52.89339844 -24.60351562 52.88476562 C-22.79665816 52.87612037 -20.98971772 52.92045614 -19.18359375 52.97265625 C-17.12412758 55.03212242 -17.25254523 58.93448954 -16.78125 61.72265625 C-16.58402344 62.46515625 -16.38679688 63.20765625 -16.18359375 63.97265625 C-13.38489348 65.37200638 -11.27860583 65.2253103 -8.18359375 64.97265625 C-6.18359375 63.97265625 -6.18359375 63.97265625 -5.18359375 61.97265625 C-4.59635857 58.19757294 -4.95115245 56.38927538 -6.8203125 53.0390625 C-9.40710307 49.68264829 -11.83661517 47.92949818 -15.43359375 45.72265625 C-17.380804 44.52078964 -19.30732054 43.28250736 -21.18359375 41.97265625 C-21.18359375 41.31265625 -21.18359375 40.65265625 -21.18359375 39.97265625 C-22.83359375 39.31265625 -24.48359375 38.65265625 -26.18359375 37.97265625 C-26.18359375 37.31265625 -26.18359375 36.65265625 -26.18359375 35.97265625 C-26.84359375 35.97265625 -27.50359375 35.97265625 -28.18359375 35.97265625 C-32.93883613 27.99612064 -34.70322591 20.91156484 -32.65234375 11.546875 C-31.60210028 8.42468382 -30.75246381 6.36273857 -27.99609375 4.47265625 C-27.39796875 4.30765625 -26.79984375 4.14265625 -26.18359375 3.97265625 C-26.18359375 3.31265625 -26.18359375 2.65265625 -26.18359375 1.97265625 C-17.34884534 -2.23794725 -9.2649193 -4.02415687 0 0 Z " fill="#2D2D2D" transform="translate(123.18359375,69.02734375)"/>
<path d="M0 0 C0.495 0.474375 0.99 0.94875 1.5 1.4375 C1.5 2.0975 1.5 2.7575 1.5 3.4375 C2.16 3.4375 2.82 3.4375 3.5 3.4375 C7.00014282 9.8544285 6.74490236 15.1720633 6.5 22.4375 C1.55 22.4375 -3.4 22.4375 -8.5 22.4375 C-8.72786458 20.19140625 -8.95572917 17.9453125 -9.18359375 15.69921875 C-9.45265693 13.27662821 -9.45265693 13.27662821 -10.5 10.4375 C-15.82170494 10.14187633 -15.82170494 10.14187633 -20.5 12.4375 C-21.5850218 15.8475685 -21.64284924 17.92104505 -20.6875 21.375 C-18.00815241 25.12608663 -15.01318664 27.1206398 -11.19921875 29.6484375 C4.73156297 40.20747951 4.73156297 40.20747951 6.875 49.1875 C8.09891881 57.10138276 7.72010438 64.05437739 3.015625 70.74609375 C-2.26337692 76.63735105 -8.84544992 77.20172258 -16.375 77.6875 C-22.45928389 77.58117271 -27.67875146 75.94200967 -32.375 72.0625 C-38.13243621 64.95037291 -38.07612504 59.50842414 -38.5 50.4375 C-33.22 50.4375 -27.94 50.4375 -22.5 50.4375 C-22.33723958 52.68359375 -22.17447917 54.9296875 -22.01171875 57.17578125 C-21.40636064 59.85137168 -20.68306437 60.80927622 -18.5 62.4375 C-14.42205575 62.86228586 -12.96923881 62.75032587 -9.5 60.4375 C-8.8673937 55.69295279 -8.86363793 53.51273246 -11.3125 49.375 C-14.69502476 45.78598391 -19.04824615 43.42901745 -23.26953125 40.953125 C-24.00558594 40.45296875 -24.74164063 39.9528125 -25.5 39.4375 C-25.5 38.7775 -25.5 38.1175 -25.5 37.4375 C-26.09554687 37.17453125 -26.69109375 36.9115625 -27.3046875 36.640625 C-31.72143013 34.22006142 -34.65254567 30.13240865 -36.875 25.6875 C-38.34249989 18.05650059 -38.33389622 11.28374325 -34.5 4.4375 C-32.5 1.5 -32.5 1.5 -30.5 -0.5625 C-29.51 -0.5625 -28.52 -0.5625 -27.5 -0.5625 C-27.5 -1.2225 -27.5 -1.8825 -27.5 -2.5625 C-17.73921516 -5.9575556 -8.88968621 -5.55605388 0 0 Z " fill="#2B2B2B" transform="translate(79.5,71.5625)"/>
<path d="M0 0 C2.80374154 0.82884139 4.49123394 1.85191396 6.80712891 3.61816406 C7.5827417 4.20130371 8.35835449 4.78444336 9.1574707 5.38525391 C10.37623901 6.32038818 10.37623901 6.32038818 11.61962891 7.27441406 C13.31251886 8.54934072 15.0065349 9.82277345 16.70166016 11.09472656 C17.53262207 11.72024414 18.36358398 12.34576172 19.21972656 12.99023438 C24.25108499 16.73073971 29.43261375 20.25432119 34.61962891 23.77441406 C34.60802734 23.13632812 34.59642578 22.49824219 34.58447266 21.84082031 C34.57544922 21.01453125 34.56642578 20.18824219 34.55712891 19.33691406 C34.54552734 18.51320313 34.53392578 17.68949219 34.52197266 16.84082031 C34.61962891 14.77441406 34.61962891 14.77441406 35.61962891 13.77441406 C38.48432216 13.70111076 41.31856564 13.68223575 44.18212891 13.71191406 C46.96650391 13.73253906 49.75087891 13.75316406 52.61962891 13.77441406 C52.61962891 22.02441406 52.61962891 30.27441406 52.61962891 38.77441406 C54.26962891 39.43441406 55.91962891 40.09441406 57.61962891 40.77441406 C57.61962891 41.43441406 57.61962891 42.09441406 57.61962891 42.77441406 C58.26802734 42.97164062 58.91642578 43.16886719 59.58447266 43.37207031 C63.92736906 45.37863377 67.43277368 48.26714151 71.18212891 51.21191406 C72.68341375 52.37730085 74.18471529 53.54266614 75.68603516 54.70800781 C76.34547119 55.22419678 77.00490723 55.74038574 77.68432617 56.2722168 C79.05002494 57.33228297 80.44754803 58.35195043 81.86547852 59.34106445 C82.44434814 59.81406982 83.02321777 60.2870752 83.61962891 60.77441406 C83.61962891 61.43441406 83.61962891 62.09441406 83.61962891 62.77441406 C78.94304404 61.34485894 74.65217267 59.42771327 70.30712891 57.21191406 C69.26878906 56.68791016 69.26878906 56.68791016 68.20947266 56.15332031 C62.42471968 53.21932689 56.69597136 50.18239337 50.97338867 47.12939453 C46.26550956 44.6244617 41.52370761 42.20287734 36.74462891 39.83691406 C30.63985349 36.8117285 24.58719482 33.69595076 18.55712891 30.52441406 C17.77160645 30.11199463 16.98608398 29.6995752 16.17675781 29.2746582 C15.42442871 28.87754639 14.67209961 28.48043457 13.89697266 28.07128906 C13.17106934 27.68908203 12.44516602 27.306875 11.69726562 26.91308594 C9.72780962 25.8337037 7.84094685 24.66569445 5.93603516 23.47753906 C2.2525352 21.5858948 0.67995344 21.09428413 -3.38037109 21.77441406 C-6.386839 22.98507739 -9.17752157 24.50921932 -12.00537109 26.08691406 C-12.83077393 26.53405762 -13.65617676 26.98120117 -14.5065918 27.44189453 C-17.13894467 28.87239696 -19.76054841 30.32110648 -22.38037109 31.77441406 C-24.08987129 32.71866933 -25.79950522 33.66268252 -27.50927734 34.60644531 C-30.03960874 36.00341433 -32.56985542 37.40051247 -35.09863281 38.80029297 C-42.10933508 42.66557161 -49.22195818 46.28261302 -56.40966797 49.80517578 C-59.90917967 51.52631818 -63.39371649 53.27741574 -66.88037109 55.02441406 C-68.74825216 55.95859176 -70.61626508 56.89245818 -72.48583984 57.82324219 C-73.84673461 58.50649554 -75.20299141 59.19901611 -76.55615234 59.89746094 C-77.27158203 60.26419922 -77.98701172 60.6309375 -78.72412109 61.00878906 C-79.37574219 61.34620117 -80.02736328 61.68361328 -80.69873047 62.03125 C-82.38037109 62.77441406 -82.38037109 62.77441406 -84.38037109 62.77441406 C-82.86472834 58.49150099 -79.67795127 56.58226263 -76.06787109 54.14941406 C-74.78260936 53.25821143 -73.4987844 52.36493361 -72.21630859 51.46972656 C-71.24516113 50.79345215 -71.24516113 50.79345215 -70.25439453 50.10351562 C-67.50619707 48.15442925 -64.85061658 46.09458599 -62.19287109 44.02441406 C-48.69052114 33.52188164 -34.77540097 23.53431064 -20.89208984 13.54394531 C-19.68564819 12.67491577 -19.68564819 12.67491577 -18.45483398 11.78833008 C-16.85723824 10.63786369 -15.2588068 9.48855665 -13.65942383 8.34057617 C-12.92022705 7.80827393 -12.18103027 7.27597168 -11.41943359 6.72753906 C-10.71463867 6.22287109 -10.00984375 5.71820313 -9.28369141 5.19824219 C-7.18539853 3.67321775 -7.18539853 3.67321775 -4.65380859 1.32128906 C-2.38037109 -0.22558594 -2.38037109 -0.22558594 0 0 Z " fill="#2E2E2E" transform="translate(114.38037109375,10.2255859375)"/>
<path d="M0 0 C0.85758911 -0.00315216 1.71517822 -0.00630432 2.59875488 -0.009552 C3.53102905 -0.00752777 4.46330322 -0.00550354 5.42382812 -0.00341797 C6.84979309 -0.00485306 6.84979309 -0.00485306 8.30456543 -0.00631714 C10.31876695 -0.00699904 12.33297065 -0.00514409 14.34716797 -0.00097656 C17.44178167 0.00437155 20.53625022 -0.00092124 23.63085938 -0.00732422 C25.58268261 -0.00666344 27.53450576 -0.00538228 29.48632812 -0.00341797 C30.88473938 -0.00645432 30.88473938 -0.00645432 32.31140137 -0.009552 C33.16899048 -0.00639984 34.02657959 -0.00324768 34.91015625 0 C35.66880981 0.00079559 36.42746338 0.00159119 37.20910645 0.00241089 C38.95507812 0.12939453 38.95507812 0.12939453 39.95507812 1.12939453 C41.40985578 10.89954904 38.71647955 18.33669114 35.01757812 27.12158203 C32.7372931 32.53834276 30.84425319 38.06649063 28.95507812 43.62939453 C24.721937 55.97254822 20.14663493 68.15607433 14.95507812 80.12939453 C10.00507813 80.12939453 5.05507812 80.12939453 -0.04492188 80.12939453 C0.48283731 73.81074347 2.03994223 68.62010342 4.39257812 62.75439453 C5.11530279 60.90546294 5.83795554 59.05650324 6.56054688 57.20751953 C6.94645996 56.22976562 7.33237305 55.25201172 7.72998047 54.24462891 C9.91964703 48.67664459 12.05844882 43.0890756 14.20507812 37.50439453 C14.82274048 35.906521 14.82274048 35.906521 15.45288086 34.27636719 C15.85063721 33.24560059 16.24839355 32.21483398 16.65820312 31.15283203 C17.17882324 29.80584229 17.17882324 29.80584229 17.70996094 28.43164062 C19.50147346 23.68026839 21.21974147 18.90157034 22.95507812 14.12939453 C13.71507812 14.12939453 4.47507813 14.12939453 -5.04492188 14.12939453 C-5.04492188 0.00529056 -5.04492188 0.00529056 0 0 Z " fill="#131313" transform="translate(142.044921875,67.87060546875)"/>
<path d="M0 0 C0.85758911 -0.00315216 1.71517822 -0.00630432 2.59875488 -0.009552 C3.53102905 -0.00752777 4.46330322 -0.00550354 5.42382812 -0.00341797 C6.84979309 -0.00485306 6.84979309 -0.00485306 8.30456543 -0.00631714 C10.31876695 -0.00699904 12.33297065 -0.00514409 14.34716797 -0.00097656 C17.44178167 0.00437155 20.53625022 -0.00092124 23.63085938 -0.00732422 C25.58268261 -0.00666344 27.53450576 -0.00538228 29.48632812 -0.00341797 C30.88473938 -0.00645432 30.88473938 -0.00645432 32.31140137 -0.009552 C33.16899048 -0.00639984 34.02657959 -0.00324768 34.91015625 0 C35.66880981 0.00079559 36.42746338 0.00159119 37.20910645 0.00241089 C38.95507812 0.12939453 38.95507812 0.12939453 39.95507812 1.12939453 C41.40934754 10.89613569 38.71826095 18.33152852 35.02148438 27.11376953 C32.72258727 32.57515324 30.80344903 38.14766691 28.89257812 43.75439453 C25.73788074 52.94260351 22.43087382 62.0580944 18.95507812 71.12939453 C17.82911052 67.81134382 18.05754429 66.07209802 19.36132812 62.84814453 C19.68963623 62.01605469 20.01794434 61.18396484 20.35620117 60.32666016 C20.71883057 59.4365625 21.08145996 58.54646484 21.45507812 57.62939453 C22.20357173 55.7345074 22.94960711 53.83864767 23.69335938 51.94189453 C24.07314941 50.97638672 24.45293945 50.01087891 24.84423828 49.01611328 C26.86635912 43.76126564 28.68045222 38.43554977 30.50634766 33.11010742 C32.4676084 27.42222413 34.61688038 21.86689064 37.00976562 16.34423828 C38.35890872 11.75603675 38.5220959 6.89219904 38.95507812 2.12939453 C24.76507813 2.12939453 10.57507813 2.12939453 -4.04492188 2.12939453 C-4.04492188 5.75939453 -4.04492188 9.38939453 -4.04492188 13.12939453 C5.52507812 13.12939453 15.09507812 13.12939453 24.95507812 13.12939453 C24.29507813 16.75939453 23.63507813 20.38939453 22.95507812 24.12939453 C21.96507812 24.45939453 20.97507813 24.78939453 19.95507812 25.12939453 C20.64224878 21.23542747 21.67841153 17.95939431 22.95507812 14.12939453 C13.71507812 14.12939453 4.47507813 14.12939453 -5.04492188 14.12939453 C-5.04492188 0.00529056 -5.04492188 0.00529056 0 0 Z " fill="#D3D3D3" transform="translate(142.044921875,67.87060546875)"/>
<path d="M0 0 C0.66 0.33 1.32 0.66 2 1 C1.34 2.98 0.68 4.96 0 7 C0.66 7.66 1.32 8.32 2 9 C-5.56377474 13.07850599 -13.14232791 17.12438465 -20.8125 21 C-21.95332031 21.5775 -23.09414063 22.155 -24.26953125 22.75 C-27 24 -27 24 -29 24 C-27.484431 19.71729534 -24.29788629 17.80747472 -20.6875 15.375 C-19.4269079 14.50212997 -18.16783166 13.62706733 -16.91015625 12.75 C-16.26578613 12.30140625 -15.62141602 11.8528125 -14.95751953 11.390625 C-11.78261173 9.13516543 -8.70173356 6.76184632 -5.625 4.375 C-5.05998779 3.93720215 -4.49497559 3.4994043 -3.9128418 3.04833984 C-2.60696982 2.03427256 -1.3032244 1.01746756 0 0 Z " fill="#626262" transform="translate(59,49)"/>
<path d="M0 0 C5.32086611 1.61847419 9.25798321 5.05669926 13.5625 8.4375 C15.06378485 9.60288679 16.56508638 10.76825207 18.06640625 11.93359375 C18.72584229 12.44978271 19.38527832 12.96597168 20.06469727 13.49780273 C21.43039604 14.55786891 22.82791912 15.57753636 24.24584961 16.56665039 C24.82471924 17.03965576 25.40358887 17.51266113 26 18 C26 18.66 26 19.32 26 20 C21.07937368 18.51308177 16.67998551 16.45888782 12.125 14.125 C11.45597656 13.78597656 10.78695312 13.44695312 10.09765625 13.09765625 C8.75218842 12.41584885 7.40745351 11.7325931 6.06347656 11.04785156 C2.71726724 9.34861701 -0.64178083 7.67535319 -4 6 C-0.23375329 4.74458443 1.37188934 5.62938042 5 7 C3.70700306 4.11562221 2.34058637 2.12780579 0 0 Z " fill="#A9A9A9" transform="translate(172,53)"/>
<path d="M0 0 C4.10110762 1.40398279 6.98089159 3.37087038 10.3125 6.125 C11.19550781 6.84945312 12.07851562 7.57390625 12.98828125 8.3203125 C13.98408203 9.15175781 13.98408203 9.15175781 15 10 C11.79604584 10 9.90600261 9.25664978 7 8 C7 8.66 7 9.32 7 10 C7.66 10.33 8.32 10.66 9 11 C4.14036821 10.39254603 0.2594482 8.27241033 -4 6 C-0.23375329 4.74458443 1.37188934 5.62938042 5 7 C3.70700306 4.11562221 2.34058637 2.12780579 0 0 Z " fill="#AEAEAE" transform="translate(172,53)"/>
<path d="M0 0 C0.99 0.33 1.98 0.66 3 1 C5.14255793 0.61067144 5.14255793 0.61067144 7 0 C4.84545751 2.35716404 2.80280126 3.78966144 -0.0625 5.1875 C-1.10083984 5.70376953 -1.10083984 5.70376953 -2.16015625 6.23046875 C-4 7 -4 7 -6 7 C-4.61990379 3.66476748 -3.15049348 1.81392049 0 0 Z " fill="#D6D6D6" transform="translate(36,66)"/>
<path d="M0 0 C3.96 0 7.92 0 12 0 C11.34 3.63 10.68 7.26 10 11 C9.01 11.33 8.02 11.66 7 12 C7.67170806 8.1936543 8.72746564 4.64793184 10 1 C6.7 1 3.4 1 0 1 C0 0.67 0 0.34 0 0 Z " fill="#C2C2C2" transform="translate(155,81)"/>
<path d="M0 0 C6.875 3.625 6.875 3.625 8 7 C4.08788267 5.84414715 1.1254959 4.64465038 -2 2 C-1.34 2 -0.68 2 0 2 C0 1.34 0 0.68 0 0 Z " fill="#D3D3D3" transform="translate(190,66)"/>
<path d="M0 0 C0.66 0.33 1.32 0.66 2 1 C1.34 1.66 0.68 2.32 0 3 C1.32 3.33 2.64 3.66 4 4 C2.71211992 4.53012738 1.41953322 5.0488329 0.125 5.5625 C-0.95394531 5.99755859 -0.95394531 5.99755859 -2.0546875 6.44140625 C-4 7 -4 7 -6 6 C-4 4 -2 2 0 0 Z " fill="#949494" transform="translate(43,61)"/>
<path d="M0 0 C3.37462715 0.54723683 5.08235 1.0549 8 3 C8 3.66 8 4.32 8 5 C2.25 3.125 2.25 3.125 0 2 C0 1.34 0 0.68 0 0 Z " fill="#0B0B0B" transform="translate(179,61)"/>
</svg>
